<?xml version="1.0" encoding="UTF-8"?>
<svg id="a" data-name="Layer 1" xmlns="http://www.w3.org/2000/svg" viewBox="0 0 329.01 329.17">
  <defs>
    <style>
      .b {
        fill: #221f20;
        stroke: #902926;
        stroke-miterlimit: 10;
      }
    </style>
  </defs>
  <path class="b" d="M165.1,328.67c-7.92,0-15.87-.63-23.83-1.88-76.56-12.06-110.85-56.16-126.13-91.02C-1.22,198.45.51,164.1.59,162.65l.02-.3C8.92,54.34,79.15,18.31,120.28,6.44c25.1-7.24,52.17-7.87,78.28-1.83,88.44,20.48,116.87,87.99,125.95,126.41h0c5.85,24.78,5.26,51.03-1.71,75.91-23.11,82.49-87.21,109.16-123.36,117.72-11.29,2.67-22.77,4.01-34.34,4.01ZM30.54,164.44c-.07,1.84-.92,30.32,12.52,60.29,18,40.14,52.61,64.5,102.88,72.43,15.72,2.48,31.4,1.91,46.6-1.69,36.31-8.6,83.37-32.34,101.38-96.62,5.61-20.01,6.09-41.08,1.4-60.92h0c-9.13-38.66-34.5-88.1-103.52-104.08-21.14-4.9-43-4.4-63.2,1.43-41.08,11.85-91.42,43.88-98.06,129.18Z"/>
  <path class="b" d="M183.51,177.73v-95.36s-3.25-10.55-11.57-10.75c0,0-10.32-.81-12.06,9.54l-.93,90.29-65.33.81s-8.52.41-8.72,12.17c0,0,1.01,10.75,7.51,10.75h77.91s13.19,1.62,13.19-17.45Z"/>
</svg>