<svg width="96" height="94" viewBox="0 0 96 94" fill="none" xmlns="http://www.w3.org/2000/svg">
<g clip-path="url(#clip0_396_995)">
<path d="M67.642 29.2987L58.0506 29.2795H55.6601C54.8862 29.2634 53.85 29.2795 53.7811 29.2987C53.2204 29.3501 52.6924 29.5203 52.2366 29.8478C51.7808 30.1753 51.3775 30.6055 51.1644 31.1032C51.0398 31.3601 50.9709 31.6202 50.9184 31.877C50.866 32.2045 50.866 32.2206 50.866 33.2192V41.0632H65.3597V51.3186H50.866V80.2384H38.9201L38.7266 61.4326L38.7791 51.3186H28.3613V41.0632H38.8315L38.8479 33.2192C38.8643 32.6508 38.8479 31.0872 39.1103 29.8638C39.3201 28.5924 39.7267 27.3369 40.3235 26.165C41.4319 23.8082 43.1862 21.779 45.3472 20.2828C47.5081 18.8026 50.0921 17.8907 52.7252 17.6691C54.2533 17.5632 54.8173 17.6499 55.6601 17.6691L58.0506 17.7526C61.2477 17.8746 64.4449 18.1315 67.642 18.5778V29.2987ZM81.9456 13.7616C73.2493 5.26254 61.2641 0 48 0C34.7359 0 22.7539 5.26254 14.0544 13.7616C5.37451 22.2606 0 34.0283 0 47C0 72.9595 21.4882 94 48 94C61.2641 94 73.2493 88.7343 81.9456 80.2384C90.6222 71.7394 96 59.9717 96 47C96 34.0283 90.6222 22.2606 81.9456 13.7616Z" fill="#003B5C"/>
</g>
<defs>
<clipPath id="clip0_396_995">
<rect width="96" height="94" fill="white"/>
</clipPath>
</defs>
</svg>
