<svg width="96" height="96" viewBox="0 0 96 96" fill="none" xmlns="http://www.w3.org/2000/svg">
<g clip-path="url(#clip0_396_1009)">
<path d="M47.982 38.7429C42.8827 38.7429 38.7246 42.8994 38.7246 48C38.7246 53.1006 42.8827 57.2243 47.982 57.2243C53.0812 57.2243 57.2426 53.0645 57.2426 48C57.2426 42.9355 53.0845 38.7429 47.982 38.7429ZM63.1223 36.6974C61.1744 36.6974 59.5807 35.1076 59.5807 33.1571C59.5807 31.2067 61.1744 29.5874 63.1223 29.5874C65.0701 29.5874 66.6966 31.1772 66.6966 33.1571C66.6966 35.1371 65.1029 36.6974 63.1223 36.6974ZM47.982 62.0299C40.2528 62.0299 33.9501 55.7296 33.9501 48C33.9501 40.2704 40.2528 33.9373 47.982 33.9373C55.7112 33.9373 62.0171 40.2377 62.0171 48C62.0171 55.7623 55.7144 62.0299 47.982 62.0299ZM59.6135 24.9097H36.3537C30.051 24.9097 24.9157 30.0397 24.9157 36.3729V59.5944C24.9157 65.9275 30.051 71.0576 36.3537 71.0576H59.6135C65.9162 71.0576 71.0482 65.9275 71.0482 59.5944V36.3729C71.0482 30.0397 65.9162 24.9097 59.6135 24.9097ZM75.8589 59.5944C75.8589 68.5564 68.5822 75.8631 59.6135 75.8631H36.3537C27.385 75.8631 20.1084 68.5564 20.1084 59.5944V36.3729C20.1084 27.4108 27.385 20.1041 36.3537 20.1041H59.6135C68.5822 20.1041 75.8589 27.4108 75.8589 36.3729V59.5944ZM81.8992 14.0627C73.2584 5.35956 61.2695 0 47.9524 0C34.6354 0 22.7416 5.35956 14.0647 14.0627C5.3255 22.733 0 34.7503 0 47.9672C0 74.4995 21.4725 96 47.9524 96C61.2695 96 73.2584 90.5749 81.8992 81.9373C90.6089 73.2342 96 61.217 96 47.9672C96 34.7175 90.6089 22.733 81.8992 14.0627ZM47.982 38.7429C42.8827 38.7429 38.7246 42.8994 38.7246 48C38.7246 53.1006 42.8827 57.2243 47.982 57.2243C53.0812 57.2243 57.2426 53.0645 57.2426 48C57.2426 42.9355 53.0845 38.7429 47.982 38.7429ZM63.1223 36.6974C61.1744 36.6974 59.5807 35.1076 59.5807 33.1571C59.5807 31.2067 61.1744 29.5874 63.1223 29.5874C65.0701 29.5874 66.6966 31.1772 66.6966 33.1571C66.6966 35.1371 65.1029 36.6974 63.1223 36.6974ZM47.982 62.0299C40.2528 62.0299 33.9501 55.7296 33.9501 48C33.9501 40.2704 40.2528 33.9373 47.982 33.9373C55.7112 33.9373 62.0171 40.2377 62.0171 48C62.0171 55.7623 55.7144 62.0299 47.982 62.0299ZM59.6135 24.9097H36.3537C30.051 24.9097 24.9157 30.0397 24.9157 36.3729V59.5944C24.9157 65.9275 30.051 71.0576 36.3537 71.0576H59.6135C65.9162 71.0576 71.0482 65.9275 71.0482 59.5944V36.3729C71.0482 30.0397 65.9162 24.9097 59.6135 24.9097ZM47.982 38.7429C42.8827 38.7429 38.7246 42.8994 38.7246 48C38.7246 53.1006 42.8827 57.2243 47.982 57.2243C53.0812 57.2243 57.2426 53.0645 57.2426 48C57.2426 42.9355 53.0845 38.7429 47.982 38.7429ZM63.1223 36.6974C61.1744 36.6974 59.5807 35.1076 59.5807 33.1571C59.5807 31.2067 61.1744 29.5874 63.1223 29.5874C65.0701 29.5874 66.6966 31.1772 66.6966 33.1571C66.6966 35.1371 65.1029 36.6974 63.1223 36.6974ZM47.982 62.0299C40.2528 62.0299 33.9501 55.7296 33.9501 48C33.9501 40.2704 40.2528 33.9373 47.982 33.9373C55.7112 33.9373 62.0171 40.2377 62.0171 48C62.0171 55.7623 55.7144 62.0299 47.982 62.0299ZM59.6135 24.9097H36.3537C30.051 24.9097 24.9157 30.0397 24.9157 36.3729V59.5944C24.9157 65.9275 30.051 71.0576 36.3537 71.0576H59.6135C65.9162 71.0576 71.0482 65.9275 71.0482 59.5944V36.3729C71.0482 30.0397 65.9162 24.9097 59.6135 24.9097Z" fill="#003B5C"/>
</g>
<defs>
<clipPath id="clip0_396_1009">
<rect width="96" height="96" fill="white"/>
</clipPath>
</defs>
</svg>
