<svg width="96" height="96" viewBox="0 0 96 96" fill="none" xmlns="http://www.w3.org/2000/svg">
<g clip-path="url(#clip0_396_992)">
<path d="M78.2041 72.654H66.714V48.236C66.714 46.3575 66.2746 44.8986 65.4122 43.8462C64.5531 42.7905 63.2677 42.2627 61.5986 42.2627C60.3361 42.2627 59.1392 42.5446 58.0342 43.0889C56.9258 43.6331 55.8535 44.3543 54.8534 45.269V72.654H43.3633V34.2206H50.479C51.1972 34.2206 51.7972 34.378 52.2694 34.7124C52.7449 35.0271 53.0958 35.5025 53.2892 36.1516L53.9582 38.381C54.696 37.6794 55.4666 37.0466 56.2601 36.45C57.0504 35.8533 57.8932 35.3615 58.7884 34.9386C59.7032 34.5353 60.6673 34.2206 61.7232 33.9911C62.7758 33.7452 63.9202 33.6403 65.1499 33.6403C67.2584 33.6403 69.1209 33.9911 70.7375 34.7288C72.3541 35.45 73.7215 36.4664 74.8299 37.7679C75.9382 39.0662 76.781 40.6136 77.3614 42.4037C77.9221 44.197 78.2041 46.128 78.2041 48.236V72.654ZM34.8605 26.2802C34.49 27.0703 33.9981 27.7719 33.3488 28.3882C32.6963 28.9849 31.9585 29.4767 31.0993 29.8275C30.2566 30.1979 29.3417 30.3717 28.3744 30.3717C27.407 30.3717 26.5676 30.1979 25.7412 29.8275C24.9313 29.4767 24.2131 28.9849 23.5803 28.3882C22.9474 27.7719 22.4555 27.0703 22.1047 26.2802C21.7341 25.4704 21.5603 24.6114 21.5603 23.6967C21.5603 22.782 21.7341 21.887 22.1047 21.0609C22.4555 20.2544 22.9474 19.5331 23.5803 18.92C24.2131 18.3037 24.9313 17.8119 25.7412 17.4775C26.5676 17.1267 27.4431 16.9529 28.3744 16.9529C29.3056 16.9529 30.2566 17.1267 31.0993 17.4775C31.9585 17.8119 32.6963 18.3037 33.3488 18.92C33.9981 19.5331 34.49 20.2544 34.8605 21.0609C35.2442 21.887 35.4212 22.7657 35.4212 23.6967C35.4212 24.6278 35.2442 25.4704 34.8605 26.2802ZM34.0866 72.654H22.5965V34.2206H34.0866V72.654ZM81.9456 14.0548C73.2493 5.37668 61.2674 0 48 0C34.7326 0 22.7539 5.37668 14.0577 14.0548C5.37778 22.7296 0 34.7452 0 47.9902C0 74.4965 21.4882 96 48 96C61.2674 96 73.2493 90.6069 81.9456 81.9452C90.6255 73.2507 96 61.2352 96 47.9902C96 34.7452 90.6255 22.7296 81.9456 14.0548Z" fill="#003B5C"/>
</g>
<defs>
<clipPath id="clip0_396_992">
<rect width="96" height="96" fill="white"/>
</clipPath>
</defs>
</svg>
