<?xml version="1.0" encoding="UTF-8"?>
<svg id="Layer_1" data-name="Layer 1" xmlns="http://www.w3.org/2000/svg" viewBox="0 0 240.79 63.23">
  <defs>
    <style>
      .cls-1 {
        fill: #003b5c;
      }

      .cls-2 {
        fill: #ff671f;
      }
    </style>
  </defs>
  <g>
    <path class="cls-1" d="M14.64,51.08c-.28-1.4-1.28-2.36-3.2-2.36-2.48,0-3.6,1.92-3.6,4.04s1.12,4,3.72,4c1.72,0,2.64-.8,3.04-2.12h7.88c-.56,4.84-4.32,8.6-11.08,8.6-7.48,0-11.4-4.88-11.4-10.48s3.92-10.52,11.36-10.52c7,0,10.64,4.08,11.12,8.84h-7.84Z"/>
    <path class="cls-1" d="M30.2,32.2c2.64,0,4.64,2.08,4.64,4.6s-2,4.52-4.64,4.52-4.6-2.04-4.6-4.52,2-4.6,4.6-4.6ZM26.32,42.8h7.84v19.88h-7.84v-19.88Z"/>
    <path class="cls-1" d="M55.04,49.84c-1.04-.28-1.64-.36-2.68-.36-3,0-5.32,1.4-5.32,6.2v7h-7.84v-19.88h7.84v3.16c.88-1.8,3.12-3.56,5.96-3.56.88,0,1.4.08,2.04.28v7.16Z"/>
    <path class="cls-1" d="M71.28,51.08c-.28-1.4-1.28-2.36-3.2-2.36-2.48,0-3.6,1.92-3.6,4.04s1.12,4,3.72,4c1.72,0,2.64-.8,3.04-2.12h7.88c-.56,4.84-4.32,8.6-11.08,8.6-7.48,0-11.4-4.88-11.4-10.48s3.92-10.52,11.36-10.52c7,0,10.64,4.08,11.12,8.84h-7.84Z"/>
    <path class="cls-1" d="M104.15,42.8v19.88h-7.84v-2.96c-1.04,2.12-3.36,3.44-6.56,3.44-2.28,0-4.16-.72-5.2-1.88-1.48-1.56-1.84-3.76-1.84-6.72v-11.76h7.88v10.08c0,2.36.72,3.76,2.72,3.76s3-1.4,3-4.12v-9.72h7.84Z"/>
    <path class="cls-1" d="M109.2,34.68h7.84v28h-7.84v-28Z"/>
    <path class="cls-1" d="M144.15,42.8v19.88h-7.84v-2.96c-.72,1.64-3.24,3.48-6.08,3.48-5.44,0-9.24-4.2-9.24-10.44s3.8-10.44,9.24-10.44c2.84,0,5.36,1.8,6.08,3.44v-2.96h7.84ZM136.32,52.76c0-2.16-1.52-3.92-3.76-3.92s-3.68,1.76-3.68,3.92,1.52,3.92,3.68,3.92,3.76-1.8,3.76-3.92Z"/>
    <path class="cls-1" d="M165.04,49.84c-1.04-.28-1.64-.36-2.68-.36-3,0-5.32,1.4-5.32,6.2v7h-7.84v-19.88h7.84v3.16c.88-1.8,3.12-3.56,5.96-3.56.88,0,1.4.08,2.04.28v7.16Z"/>
    <path class="cls-1" d="M177.68,34.68h7.84v28h-7.84v-28Z"/>
    <path class="cls-1" d="M212.63,42.8v19.88h-7.84v-2.96c-.72,1.64-3.24,3.48-6.08,3.48-5.44,0-9.24-4.2-9.24-10.44s3.8-10.44,9.24-10.44c2.84,0,5.36,1.8,6.08,3.44v-2.96h7.84ZM204.79,52.76c0-2.16-1.52-3.92-3.76-3.92s-3.68,1.76-3.68,3.92,1.52,3.92,3.68,3.92,3.76-1.8,3.76-3.92Z"/>
    <path class="cls-1" d="M225.51,62.67h-7.84v-28h7.84v11.08c.72-1.64,3.24-3.44,6.04-3.44,5.44,0,9.24,4.2,9.24,10.44s-3.8,10.44-9.24,10.44c-2.8,0-5.32-1.84-6.04-3.48v2.96ZM232.95,52.76c0-2.16-1.52-3.92-3.72-3.92s-3.72,1.76-3.72,3.92,1.52,3.92,3.72,3.92,3.72-1.8,3.72-3.92Z"/>
  </g>
  <g>
    <path class="cls-2" d="M47.38,16.6v11.4h-8.32V0h8.32v11.44L55.14,0h9.76l-10.28,14,10.28,14h-9.76l-7.76-11.4Z"/>
    <path class="cls-2" d="M76.18,6.24v4.88h9.72v5.96h-9.72v4.68h9.72v6.24h-18.04V0h18.04v6.24h-9.72Z"/>
    <path class="cls-2" d="M108.94,28l-.96-3.24h-9.4l-.96,3.24h-9L98.94,0h8.72l10.56,28h-9.28ZM103.3,8.4l-2.96,10.32h5.92l-2.96-10.32Z"/>
  </g>
</svg>