<svg width="198" height="52" viewBox="0 0 198 52" fill="none" xmlns="http://www.w3.org/2000/svg">
<path d="M12.0379 42.0013C11.8077 40.8501 10.9854 40.0608 9.40667 40.0608C7.36747 40.0608 6.44653 41.6395 6.44653 43.3827C6.44653 45.1259 7.36747 46.6718 9.50535 46.6718C10.9196 46.6718 11.6761 46.0139 12.005 44.9286H18.4844C18.024 48.9083 14.9323 52 9.37378 52C3.22327 52 0 47.9874 0 43.3827C0 38.778 3.22327 34.7325 9.34089 34.7325C15.0967 34.7325 18.0898 38.0873 18.4844 42.0013H12.0379Z" fill="#FF7500"/>
<path d="M24.8322 26.477C27.003 26.477 28.6475 28.1873 28.6475 30.2594C28.6475 32.3315 27.003 33.976 24.8322 33.976C22.6614 33.976 21.0498 32.2986 21.0498 30.2594C21.0498 28.2202 22.6943 26.477 24.8322 26.477ZM21.6418 35.193H28.0884V51.5395H21.6418V35.193Z" fill="#FF7500"/>
<path d="M45.257 40.9817C44.4019 40.7515 43.9085 40.6857 43.0534 40.6857C40.5866 40.6857 38.679 41.8369 38.679 45.7837V51.5395H32.2324V35.193H38.679V37.7913C39.4025 36.3113 41.2444 34.8641 43.5796 34.8641C44.3032 34.8641 44.7308 34.9299 45.257 35.0943V40.9817Z" fill="#FF7500"/>
<path d="M58.6102 42.0013C58.3799 40.8501 57.5577 40.0608 55.9789 40.0608C53.9397 40.0608 53.0188 41.6395 53.0188 43.3827C53.0188 45.1259 53.9397 46.6718 56.0776 46.6718C57.4919 46.6718 58.2484 46.0139 58.5773 44.9286H65.0567C64.5962 48.9083 61.5045 52 55.9461 52C49.7955 52 46.5723 47.9874 46.5723 43.3827C46.5723 38.778 49.7955 34.7325 55.9132 34.7325C61.669 34.7325 64.662 38.0873 65.0567 42.0013H58.6102Z" fill="#FF7500"/>
<path d="M85.6381 35.193V51.5395H79.1915V49.1056C78.3364 50.8488 76.4288 51.9342 73.7975 51.9342C71.9228 51.9342 70.3769 51.3422 69.5218 50.3884C68.3048 49.1056 68.0088 47.2967 68.0088 44.8628V35.193H74.4882V43.4814C74.4882 45.4219 75.0802 46.5731 76.7248 46.5731C78.3693 46.5731 79.1915 45.4219 79.1915 43.1853V35.193H85.6381Z" fill="#FF7500"/>
<path d="M89.791 28.5162H96.2376V51.5395H89.791V28.5162Z" fill="#FF7500"/>
<path d="M118.529 35.193V51.5395H112.082V49.1056C111.49 50.4541 109.418 51.9671 107.083 51.9671C102.61 51.9671 99.4854 48.5136 99.4854 43.3827C99.4854 38.2518 102.61 34.7983 107.083 34.7983C109.418 34.7983 111.49 36.2783 112.082 37.6269V35.193H118.529ZM112.091 43.3827C112.091 41.6066 110.841 40.1594 108.999 40.1594C107.157 40.1594 105.973 41.6066 105.973 43.3827C105.973 45.1588 107.223 46.606 108.999 46.606C110.775 46.606 112.091 45.1259 112.091 43.3827Z" fill="#FF7500"/>
<path d="M135.706 40.9817C134.851 40.7515 134.358 40.6857 133.503 40.6857C131.036 40.6857 129.128 41.8369 129.128 45.7837V51.5395H122.682V35.193H129.128V37.7913C129.852 36.3113 131.694 34.8641 134.029 34.8641C134.752 34.8641 135.18 34.9299 135.706 35.0943V40.9817Z" fill="#FF7500"/>
<path d="M146.1 28.5162H152.546V51.5395H146.1V28.5162Z" fill="#FF7500"/>
<path d="M174.838 35.193V51.5395H168.391V49.1056C167.799 50.4541 165.727 51.9671 163.392 51.9671C158.919 51.9671 155.794 48.5136 155.794 43.3827C155.794 38.2518 158.919 34.7983 163.392 34.7983C165.727 34.7983 167.799 36.2783 168.391 37.6269V35.193H174.838ZM168.391 43.3827C168.391 41.6066 167.141 40.1594 165.299 40.1594C163.457 40.1594 162.273 41.6066 162.273 43.3827C162.273 45.1588 163.523 46.606 165.299 46.606C167.075 46.606 168.391 45.1259 168.391 43.3827Z" fill="#FF7500"/>
<path d="M185.428 51.5313H178.981V28.508H185.428V37.6186C186.02 36.2701 188.092 34.79 190.394 34.79C194.868 34.79 197.992 38.2435 197.992 43.3745C197.992 48.5054 194.868 51.9589 190.394 51.9589C188.092 51.9589 186.02 50.4459 185.428 49.0974V51.5313ZM191.546 43.3827C191.546 41.6066 190.296 40.1594 188.487 40.1594C186.678 40.1594 185.428 41.6066 185.428 43.3827C185.428 45.1588 186.678 46.606 188.487 46.606C190.296 46.606 191.546 45.1259 191.546 43.3827Z" fill="#FF7500"/>
<path d="M38.9574 13.6495V23.0233H32.1162V0H38.9574V9.40667L45.3382 0H53.3635L44.9106 11.5117L53.3635 23.0233H45.3382L38.9574 13.6495Z" fill="white"/>
<path d="M62.6381 5.13091V9.14355H70.6305V14.0442H62.6381V17.8924H70.6305V23.0233H55.7969V0H70.6305V5.13091H62.6381Z" fill="white"/>
<path d="M89.5755 23.0233L88.7862 20.3592H81.0569L80.2675 23.0233H72.8672L81.3529 0H88.5231L97.2061 23.0233H89.5755ZM84.938 6.907L82.5041 15.3927H87.3719L84.938 6.907Z" fill="white"/>
</svg>
