<svg width="96" height="96" viewBox="0 0 96 96" fill="none" xmlns="http://www.w3.org/2000/svg">
<path d="M48.0151 51.4267L30.5039 31.6108H65.4935L48.0151 51.4267Z" fill="#003B5C"/>
<path d="M50.4512 56.657L70.271 34.208V64.3892H25.7617V34.208L45.5454 56.657L45.8078 56.8537C47.1063 57.7948 48.8935 57.7948 50.2249 56.8537L50.4512 56.657Z" fill="#003B5C"/>
<path d="M75.567 65.95C75.567 68.029 73.8782 69.7177 71.8287 69.7177H24.2009C22.1218 69.7177 20.433 68.029 20.433 65.95V30.05C20.433 28.6203 21.2463 27.3546 22.512 26.7053C22.8039 26.5413 23.099 26.443 23.4237 26.3807C23.6827 26.3151 23.9418 26.2823 24.2009 26.2823H71.7959C72.0582 26.2823 72.3173 26.3151 72.5763 26.3807C72.901 26.443 73.1928 26.5413 73.5207 26.7053C74.7865 27.3546 75.567 28.6203 75.567 30.05V65.95ZM81.932 14.0675C73.2584 5.36139 61.2728 0 48.0148 0C34.7568 0 22.7416 5.36139 14.0647 14.0675C5.35829 22.7408 0 34.7621 0 47.9836C0 74.5249 21.4725 96 48.0148 96C61.2728 96 73.2584 90.6058 81.932 81.9325C90.6417 73.2592 96 61.2379 96 47.9836C96 34.7293 90.6417 22.7408 81.932 14.0675Z" fill="#003B5C"/>
</svg>
